<?xml version="1.0" encoding="UTF-8"?>
<!DOCTYPE svg PUBLIC "-//W3C//DTD SVG 1.1//EN" "http://www.w3.org/Graphics/SVG/1.1/DTD/svg11.dtd">
<!-- Creator: CorelDRAW 2019 (64-Bit) -->
<svg xmlns="http://www.w3.org/2000/svg" xml:space="preserve" width="2.95302in" height="2.66174in" version="1.1" style="shape-rendering:geometricPrecision; text-rendering:geometricPrecision; image-rendering:optimizeQuality; fill-rule:evenodd; clip-rule:evenodd"
viewBox="0 0 28070.83 25302.05"
 xmlns:xlink="http://www.w3.org/1999/xlink"
 xmlns:xodm="http://www.corel.com/coreldraw/odm/2003">
 <defs>
  <style type="text/css">
   <![CDATA[
    .str2 {stroke:#FAEDDC;stroke-width:126.87;stroke-miterlimit:2.61313}
    .str4 {stroke:#FAEDDC;stroke-width:36.64;stroke-miterlimit:2.61313}
    .str3 {stroke:#3D2929;stroke-width:253.74;stroke-linecap:round;stroke-linejoin:round;stroke-miterlimit:2.61313}
    .str6 {stroke:#3D2929;stroke-width:206.47;stroke-linecap:round;stroke-linejoin:round;stroke-miterlimit:2.61313}
    .str0 {stroke:#3D2929;stroke-width:63.43;stroke-linecap:round;stroke-linejoin:round;stroke-miterlimit:2.61313}
    .str1 {stroke:#3D2929;stroke-width:54.64;stroke-linecap:round;stroke-linejoin:round;stroke-miterlimit:2.61313}
    .str5 {stroke:#3D2929;stroke-width:76.46;stroke-linecap:round;stroke-linejoin:round;stroke-miterlimit:2.61313}
    .fil3 {fill:none}
    .fil7 {fill:#3D2929}
    .fil4 {fill:#AD8B96}
    .fil6 {fill:#B0D8E4}
    .fil1 {fill:#E7D8DD}
    .fil2 {fill:#FAEDDC}
    .fil5 {fill:#FDF8F1}
    .fil9 {fill:#FE6963}
    .fil8 {fill:#FF988C}
    .fil0 {fill:white}
   ]]>
  </style>
 </defs>
 <g id="Layer_x0020_1">
  <metadata id="CorelCorpID_0Corel-Layer"/>
  <g id="_2052024499616">
   <path class="fil0" d="M9407.35 25302.05c-1965.2,0 -3644.92,-658.11 -4857.81,-1902.96 -18.71,-18.45 -44.24,-44.09 -69.72,-71.52 -1348.18,-1423.51 -1718.83,-3482.38 -1860.86,-5003.35 -309.16,-334.01 -613.01,-668.4 -886.32,-969.33 -401.49,-442.02 -816.38,-899.09 -1153.98,-1444.7 -464.18,-750.44 -654.74,-1514.87 -551.15,-2210.89 80.09,-539.29 346.4,-954.74 749.84,-1169.55 189.07,-100.56 397.04,-151.64 618.33,-151.64 412.01,0 761.44,176.42 982.02,324.47 101.98,68.41 197.19,141.88 286.86,219.42 22.94,-191.28 48.39,-380.12 76.27,-566.05 -93.15,-865.63 45.81,-1612.06 413.43,-2220.66 37.87,-62.54 79,-123.28 123.09,-181.73 191.28,-626.64 417.99,-1221.8 674.76,-1771.41 17.36,-37.16 35.03,-73.84 52.96,-110.4 -24.78,-489.14 62.39,-1005.26 256.17,-1508.39 9.32,-26.12 19.09,-49.29 28.26,-69.27 476.19,-1177.97 1429.32,-1967.29 2378.89,-1967.29 28.63,0 57.11,0.75 85.33,2.1 621.81,-521.85 1298.03,-967.57 2017.48,-1329.62 24.29,-49.4 49.81,-97.49 76.42,-143.97 433.41,-756.72 1214.54,-1287.89 2072.23,-1437.03 210.1,-517.51 627.38,-973.07 1195.94,-1284.52 398.94,-218.3 863.05,-333.75 1342.49,-333.75 315.94,0 629.52,48.91 932.17,145.32 477.12,151.79 923.37,415.64 1314.61,774.57 174.7,-53.14 359.76,-80.76 549.73,-80.76 248.54,0 491.35,46.44 721.77,138.13 396.92,157.86 727.01,455.19 935.54,825.88 477.24,103.82 919.26,358.9 1237.03,725.02 90.34,103.93 170.62,216.31 240.38,336.26 30.24,11.68 60.59,23.43 90.94,35.33 462.27,-596.43 1181.83,-963.76 1965.8,-963.76 1372.36,0 2488.73,1116.41 2488.73,2488.73 0,412.94 -104.83,817.69 -298.09,1177 348.27,358.41 661.96,736.18 937,1128.27 550.85,785.46 932.43,1604.28 1135.12,2435.85 109.02,-16.99 219.53,-25.56 330.27,-25.56 92.44,0 184.35,5.8 275.26,17.48 68.64,-19.31 140.72,-29.49 214.44,-29.49 106.06,0 209.39,20.96 307.25,61.94 144.35,62.16 260.92,161.19 343.67,281.02 88.96,58.38 172.19,123.8 249.17,195.73 510.06,476.49 740.74,1253.79 602.12,2028.48 -112.35,626.64 -426.83,1158.03 -719.56,1595.26 -205.39,306.62 -427.69,609.68 -673.6,917.91 309.01,677.31 617.09,1381.15 706.95,2203.07 110.78,1018.88 19.57,2068 -286.93,3302 -37.8,152.88 -71.63,314.44 -107.41,485.55 -162.8,778.05 -347.26,1659.93 -1041.22,2324.21 -137.91,131.17 -295.24,250.74 -469.42,357.29 -312.87,191.28 -636.07,315.79 -910.84,412.46 -1181.94,417.88 -2418.48,690.97 -3856.03,849.16 -203.44,292.4 -541.91,484.09 -924.23,484.09 -318.3,0 -608.45,-133.08 -814.36,-349.28 -2.1,0.11 -4.23,0.11 -6.29,0.26 -205.91,270.43 -531.46,445.39 -897.14,445.39 -336.82,0 -639.66,-148.8 -846.06,-384.09 -169.94,4.23 -1136.69,27.39 -1136.69,27.39 -540.82,13.88 -1114.05,74.33 -1803.64,190.19 -13.02,2.25 -26.12,4.08 -39.15,5.58l-18.08 3.37c-492.84,82.9 -991.41,183.34 -1473.48,280.5 -616.12,124.14 -1253.16,252.62 -1891.47,348.27 -479.41,71.63 -955.52,108.04 -1415.17,108.04z"/>
   <g>
    <path class="fil1" d="M26276.21 19357.4c-208.08,841.12 -282.93,1818.01 -936.25,2443.41 -104,98.95 -219.49,183.94 -340,257.52 -238.51,145.92 -502.39,251.19 -766.27,343.86 -1399.3,494.75 -2777.05,734.53 -4170.06,858.89 -239.78,21.56 -480.83,40.61 -723.15,55.84 -328.59,21.56 -659.68,36.79 -992.09,50.75 -239.78,8.87 -480.79,16.5 -723.12,24.1 -540.45,15.23 -1085.95,26.65 -1639.08,40.61 -640.67,16.5 -1276.29,93.9 -1910.63,200.45 -21.52,2.54 -43.11,6.36 -64.67,10.14 -1116.45,187.76 -2226.49,458 -3344.18,625.48 -2018.41,301.94 -4124.36,-43.15 -5615.06,-1573.14 -20.32,-20.32 -39.33,-39.33 -58.38,-59.65 -1472.88,-1555.36 -1682.23,-4073.65 -1754.57,-6140.27 -96.44,-2820.2 213.13,-5708.95 1360.01,-8163.81 993.32,-2125 2671.77,-3786.95 4718.14,-4744.79 442.77,-208.08 904.59,-383.15 1380.29,-521.4 1862.35,-544.3 3944.28,-652.12 5925.87,-320.95 194.12,30.43 388.2,67.25 579.78,107.82 107.82,22.83 215.68,46.97 322.22,73.54 333.64,78.67 662.26,171.29 984.49,276.57 96.41,30.46 191.58,63.43 286.71,97.72 366.65,129.38 724.39,275.33 1072.02,438.95 1555.36,733.26 3027,1811.64 4039.41,3255.37 479.56,683.78 860.16,1460.19 1044.11,2287.38 223.27,1004.77 81.21,2043.79 235.96,3056.2 215.68,1409.48 1201.44,2555.08 1357.46,3983.57 112.91,1037.74 -20.32,2034.88 -268.97,3035.87z"/>
    <g>
     <g>
      <path class="fil2" d="M20863.51 9493.84c-11.38,-385.47 4,-776.75 115.27,-1146.01 117.29,-389.14 347.6,-751.86 682.1,-982.69 334.5,-230.83 777.64,-316.2 1160.27,-179.26 454.67,162.72 762.45,610.69 872.78,1080.82 110.33,470.16 51.98,962.82 -35.55,1437.74 -164.71,893.36 -430.87,1765.05 -751.71,2613.99 -159.5,422.07 -332.74,838.87 -514.29,1251.92 -150.97,343.56 -438.65,960.31 -569.94,1192.38 -41.47,-48.5 -233.45,-950.66 -283.04,-1202.26 -90.57,-459.57 -193.15,-916.56 -290.26,-1374.79 -187.98,-886.96 -358.79,-1783.01 -385.62,-2691.83z"/>
      <path class="fil3 str0" d="M22352.74 7059.68c10.52,1754.2 -5.99,3511.69 -173.72,5259.22 -164.48,1713.26 -553.96,3392.42 -759.68,5100.1 -84.8,703.88 -138.4,1412.4 -132,2121.71"/>
     </g>
     <g>
      <path class="fil2" d="M24153.83 11392.72c142.4,-358.38 311.67,-711.51 560.17,-1006.34 261.93,-310.74 617.24,-552.42 1015.85,-631.69 398.61,-79.27 839.28,18.04 1136.24,295.5 352.88,329.67 457.85,862.93 372.71,1338.3 -85.14,475.37 -334.01,904.51 -602.72,1305.81 -505.42,754.81 -1095.38,1449.52 -1726.5,2101.68 -313.8,324.25 -638.09,638.2 -968.51,945.42 -274.81,255.53 -783.44,707.7 -996.02,868.7 -18.82,-60.96 162.61,-965.33 216.87,-1215.92 99.06,-457.81 186.07,-918.06 278.63,-1377.18 179.08,-888.98 377.5,-1779.27 713.27,-2624.28z"/>
      <path class="fil3 str0" d="M26486.13 9748.55c-685.88,1614.6 -1397.92,3221.46 -2244.76,4759.27 -830.3,1507.65 -1853.6,2894.71 -2719.6,4380.83 -356.95,612.56 -687.08,1241.74 -962.41,1895.47"/>
     </g>
     <g>
      <path class="fil2" d="M18096.04 13069.49c-158.19,-292.06 -298.09,-598.98 -355.64,-926.11 -60.67,-344.79 -24.14,-713.05 143.67,-1020.27 167.81,-307.22 475.55,-544.71 822.93,-587.71 412.79,-51.12 823.19,174.14 1090.32,492.96 267.14,318.86 413.28,720.38 530.01,1119.59 219.64,750.96 352.88,1524.6 435.25,2301.94 40.94,386.48 69.31,774.2 89.82,1162.29 17.07,322.75 34.95,908.67 23.91,1138.08 -50.67,-21.26 -548.12,-640.67 -683.78,-814.92 -247.82,-318.33 -503.92,-630.12 -756.24,-944.86 -488.58,-609.42 -967.31,-1232.35 -1340.25,-1921z"/>
      <path class="fil3 str1" d="M18297.72 10619.94c688.16,1345.15 1356.86,2703.28 1905.32,4112.43 537.75,1381.49 889.13,2823.98 1392.94,4217.18 207.67,574.24 441.12,1139.99 721.02,1683.09"/>
     </g>
    </g>
    <g>
     <path class="fil4" d="M5311.21 19808.66c-1090.92,-972.48 -2075.75,-2056.59 -3058.33,-3138.42 -383.71,-422.48 -769.75,-848 -1070.04,-1333.4 -314.44,-508.22 -533.56,-1107.24 -445.65,-1698.36 35.89,-241.39 139.37,-494.94 354.78,-609.61 256.58,-136.6 577.12,-28.93 818.47,133.04 405.27,272 697.11,679.55 969.22,1084.75 1577.93,2349.4 2858.71,4895.61 4301.61,7327.9 -593.44,-621.99 -1225.39,-1191.26 -1870.06,-1765.91z"/>
     <path class="fil4" d="M5855.02 18834.69c-717.91,-1498.51 -1275.61,-3067.65 -1831.93,-4633.34 -217.25,-611.44 -435.62,-1227.15 -537.75,-1867.97 -107,-671.02 -74.18,-1395.48 277.28,-1977.02 143.52,-237.5 363.2,-458.04 639.51,-483.9 329.04,-30.8 618.14,222.75 800.25,498.49 305.91,463.09 433.23,1018.58 541.01,1563 624.99,3156.49 851.97,6389.11 1299,9573.37 -349.84,-912.82 -763.09,-1787.09 -1187.37,-2672.63z"/>
     <path class="fil4" d="M6785.43 18693.75c-190.23,-1650.72 -205.98,-3315.92 -221.48,-4977.42 -6.06,-648.87 -11.79,-1302.11 100.52,-1941.25 117.59,-669.26 384.76,-1343.46 906.57,-1778.67 213.09,-177.73 492.69,-314.63 762.3,-248.99 321.06,78.14 511.74,412.08 594.08,732.14 138.25,537.49 77.58,1104.17 2.02,1653.94 -438.05,3187.82 -1277.22,6317.85 -1892.63,9473.89 -33.27,-976.89 -138.99,-1938.14 -251.38,-2913.65z"/>
    </g>
    <g>
     <g>
      <path class="fil5" d="M24233.66 22402.18c-1399.3,494.75 -2777.05,734.53 -4170.06,858.89 3.82,21.56 6.36,44.42 6.36,67.25 0,200.45 -163.66,364.1 -364.1,364.1 -201.72,0 -365.38,-163.66 -365.38,-364.1l0 -11.41c-328.59,21.56 -659.68,36.79 -992.09,50.75 3.82,19.05 5.09,38.06 5.09,57.11 0,201.72 -163.66,364.1 -365.38,364.1 -200.45,0 -364.1,-162.38 -364.1,-364.1 0,-11.41 0,-22.83 1.27,-33.01 -540.45,15.23 -1085.95,26.65 -1639.08,40.61 -640.67,16.5 -1276.29,93.9 -1910.63,200.45 -21.52,2.54 -43.11,6.36 -64.67,10.14 -1116.45,187.76 -2226.49,458 -3344.18,625.48 -2018.41,301.94 -4124.36,-43.15 -5615.06,-1573.14 484.61,-1962.61 1844.62,-3835.15 4151.05,-6253.22 611.52,-641.94 1169.7,-1168.43 1667,-1599.78 20.32,-17.78 39.33,-34.24 59.65,-52.02 120.51,-104.04 238.51,-201.72 351.42,-294.34 489.7,-400.89 908.33,-700.29 1245.82,-919.78 367.92,-237.23 639.4,-381.88 804.33,-461.82 10.14,-5.09 20.32,-10.14 29.19,-13.96 10.14,-5.09 19.05,-8.87 27.92,-12.69 12.69,-6.36 24.1,-11.41 34.24,-16.5 1.27,0 1.27,0 1.27,0 7.6,-3.82 15.23,-7.6 22.83,-10.14 31.74,-13.96 53.29,-22.83 64.71,-27.92 3.82,-1.27 6.36,-2.54 7.6,-2.54 1.27,-1.27 2.54,-1.27 2.54,-1.27l1998.13 -43.15c0,0 27.92,15.23 81.21,43.15 8.87,3.82 17.78,8.87 27.92,13.96 8.87,5.09 19.05,10.14 29.19,15.23 244.87,133.19 796.73,435.17 1490.65,850.02 234.73,140.83 487.15,293.03 748.49,456.73 12.69,7.6 25.37,15.23 36.79,22.83 6.36,3.82 12.69,8.87 19.05,12.69 1310.53,822.1 2856.98,1901.72 3838.93,2948.38 1003.5,1068.21 2468.82,3459.63 3208.44,4709.23 -238.62,145.92 -502.5,251.19 -766.38,343.82z"/>
      <path class="fil6" d="M15628.39 13043.29l-1135.46 5687.4 -1132.91 -5630.29c106.55,-50.75 161.11,-71.07 161.11,-71.07l1998.13 -43.15c0,0.04 38.06,20.32 109.13,57.11z"/>
      <path class="fil7" d="M14246.82 20400.23c-3.82,2.54 -8.87,3.82 -12.69,3.82 -8.87,0 -17.78,-3.82 -24.1,-11.41 0,-1.27 0,-1.27 0,-1.27 -2.54,-1.27 -3.82,-3.82 -5.09,-6.36 -743.44,-1613.74 -3566.22,-3401.29 -3594.13,-3419.03 -7.6,-5.09 -13.96,-13.96 -15.23,-22.83 0,-10.14 2.54,-19.05 8.87,-26.65l1646.68 -1752.03 -1381.56 -322.22c20.32,-17.78 39.33,-34.24 59.65,-52.02l1390.47 324.77c10.14,2.54 19.05,11.41 22.83,21.56 2.54,11.41 0,22.83 -7.6,31.74l-1658.13 1764.71c313.36,200.45 2788.5,1829.42 3547.17,3342.9 13.96,27.92 26.65,54.56 39.33,82.45 6.36,16.5 0.04,35.55 -16.47,41.88z"/>
      <path class="fil7" d="M15658.81 13050.89c0,1.27 -1.27,3.82 -1.27,7.6 -16.5,65.98 -128.1,548.04 -284.2,1264.87 -1.27,2.54 -1.27,5.09 -2.54,8.87 -205.54,945.16 -488.43,2297.53 -728.21,3649.93 -219.49,1228.08 -402.16,2456.09 -460.55,3378.42l-1.27 1.27c0,8.87 -1.27,17.78 -1.27,26.65 -2.54,39.33 -5.09,77.39 -6.36,116.69 -48.2,787.82 -78.67,1505.89 -97.72,2127.54 -21.52,2.54 -43.11,6.36 -64.67,10.14 20.32,-655.9 53.29,-1419.62 105.28,-2258.23 19.05,-300.67 50.75,-635.58 93.9,-992.09 0,-1.27 0,-1.27 0,-1.27 3.82,-38.06 8.87,-77.39 13.96,-115.42 63.43,-518.85 148.43,-1082.2 243.6,-1656.89 1.27,-2.54 1.27,-5.09 1.27,-7.6 8.87,-52.02 17.78,-104 26.65,-157.3 441.5,-2599.5 1092.31,-5379.13 1102.45,-5418.43 0,-2.54 1.27,-3.82 2.54,-6.36 5.09,-12.69 20.32,-20.32 35.52,-16.5 16.54,3.85 26.68,20.36 22.9,38.1z"/>
      <path class="fil7" d="M18820.32 17143.59c2.54,7.6 2.54,16.5 -1.27,25.37 -3.82,7.6 -11.41,12.69 -19.05,16.5 -1120.23,346.33 -2008.31,992.09 -2728.88,1578.23 -744.71,605.15 -1409.48,1571.87 -1872.53,2721.28 -5.09,11.41 -13.96,19.05 -25.37,20.32l-3.78 -0.04c-3.82,0 -7.6,-1.27 -12.69,-2.54 -15.23,-6.36 -24.1,-25.37 -16.5,-41.88 12.69,-33.01 26.65,-65.98 40.61,-98.95 463.09,-1116.41 1118.95,-2053.93 1849.67,-2647.67 719.3,-583.6 1602.33,-1228.08 2717.47,-1579.5 -121.78,-314.63 -291.8,-583.6 -520.13,-822.07 -186.49,-194.12 -374.24,-371.7 -555.68,-544.26 -181.43,-172.53 -370.43,-350.14 -556.95,-545.5 -11.41,-11.41 -12.69,-30.46 -1.27,-43.15 276.53,-309.54 532.81,-575.96 782.77,-814.47 19.05,11.41 38.06,22.83 55.84,35.52 -247.41,232.18 -498.61,494.75 -771.36,799.27 178.89,186.49 360.29,356.47 534.08,522.71 182.67,172.53 370.43,350.14 558.19,545.5 242.32,253.7 421.25,539.1 546.85,875.32z"/>
      <path class="fil7" d="M14492.97 18633.01c-14.71,0 -27.92,-10.29 -30.95,-25.26l-1132.99 -5500.95c-3.59,-17.22 7.48,-33.94 24.7,-37.54 16.69,-2.73 33.94,7.45 37.42,24.63l1132.99 5500.95c3.59,17.18 -7.48,33.94 -24.63,37.54 -2.32,0.37 -4.38,0.64 -6.55,0.64z"/>
     </g>
     <g>
      <g>
       <path class="fil8" d="M15519.26 12986.22c0,0 -130.65,810.69 -940.07,858.89 -803.05,48.2 -1157.8,-761.14 -1157.8,-761.14l107.33 -819.6 30.46 -596.28 0 -8.87 48.2 -2.54 1830.69 -95.13 29.19 507.44 51.98 917.24z"/>
       <path class="fil7" d="M15467.24 12068.98c-57.11,101.46 -120.51,197.9 -196.63,285.47 -172.53,201.72 -411.03,359.01 -674.95,384.39 -115.45,11.41 -230.91,-1.27 -343.78,-27.92 -280.38,-68.52 -535.36,-229.64 -723.15,-446.59l30.46 -596.28c16.5,-3.82 31.74,-7.6 48.2,-11.41l1830.69 -95.13 29.15 507.48z"/>
      </g>
      <path class="fil8" d="M18952.24 7463.75c0,600.06 -116.69,1172.25 -328.59,1694.92 -671.13,1655.62 -2293.71,2824.01 -4190.38,2824.01 -1554.09,0 -2924.27,-784.04 -3736.16,-1977.85 -493.52,-724.39 -781.5,-1598.51 -781.5,-2541.12 0,-2495.43 2022.27,-4517.7 4517.66,-4517.7 2495.46,0.04 4518.97,2022.31 4518.97,4517.73z"/>
      <path class="fil8" d="M9161.32 7163.61c-282.55,145.81 -446.02,469.3 -455.08,787.15 -9.09,317.81 117.44,627.35 296.33,890.18 321.93,472.97 874.91,833.85 1442.23,759.72 58.05,-7.56 117.25,-20.25 165.64,-53.18 104.08,-70.77 129.83,-212.16 131.96,-337.98 10.14,-594.97 -305.23,-1102.41 -558.11,-1617.67 -187.2,-381.51 -579.37,-657.14 -1022.96,-428.21z"/>
      <path class="fil8" d="M19615.74 7098.82c282.55,145.81 446.02,469.3 455.08,787.15 9.13,317.81 -117.44,627.35 -296.33,890.18 -321.93,472.97 -874.91,833.85 -1442.23,759.72 -58.05,-7.56 -117.25,-20.25 -165.64,-53.18 -104.08,-70.77 -129.83,-212.12 -131.96,-337.98 -10.14,-594.97 305.23,-1102.38 558.11,-1617.64 187.23,-381.54 579.33,-657.17 1022.96,-428.25z"/>
      <g>
       <circle class="fil7" cx="12854.57" cy="6970.11" r="348.2"/>
       <circle class="fil7" cx="15866.94" cy="6970.11" r="348.2"/>
       <path class="fil9" d="M13751.92 6730.79c-200.52,444.64 -323.16,924.31 -360.73,1410.64 -11.53,149.66 19.2,346.1 166.73,373.8 73.54,13.81 148.13,-24.7 222.6,-17.78 94.16,8.79 164.78,85.59 242.66,139.29 201.19,138.84 497.26,118.64 677.76,-46.22 78.52,-71.71 140,-169.01 239.33,-206.96 68.86,-26.31 147.45,-19.98 214.85,-49.77 89.52,-39.56 142.36,-137.05 155.27,-234.05 12.91,-97 -7.52,-195.02 -27.81,-290.75 -92.92,-438.47 -191.58,-890.37 -449.66,-1256.83 -72.42,-102.84 -160.1,-200.03 -274.55,-252.2 -314.18,-143.15 -685.43,162.46 -806.46,430.83z"/>
       <path class="fil7" d="M11977.4 6082.41c-17.48,77.88 1.61,167.1 61.68,219.68 76.5,66.91 191.05,58.57 291.8,45.21 93.67,-12.46 187.42,-25.94 279.07,-48.88 137.68,-34.43 270.09,-90.12 390.94,-164.48 304.34,-187.2 82.63,-585.81 -227.13,-573.34 -262.98,10.55 -735.13,248.87 -796.36,521.81z"/>
       <path class="fil7" d="M16605.84 6082.41c17.48,77.88 -1.61,167.1 -61.68,219.68 -76.5,66.91 -191.05,58.57 -291.8,45.21 -93.71,-12.46 -187.42,-25.94 -279.07,-48.88 -137.68,-34.43 -270.09,-90.12 -391.01,-164.48 -304.3,-187.2 -82.67,-585.81 227.13,-573.34 263.06,10.55 735.17,248.87 796.43,521.81z"/>
      </g>
      <g>
       <path class="fil5" d="M18819.05 7939.49c-46.97,404.71 -105.31,817.01 -195.36,1219.18 -671.13,1655.62 -2293.71,2824.01 -4190.38,2824.01 -1554.09,0 -2924.27,-784.04 -3736.16,-1977.85 -265.15,-597.56 -353.96,-1259.75 -445.31,-1906.78 908.33,95.17 1760.9,-393.29 2622.3,-696.47 360.29,-125.6 732.02,-222.04 1107.54,-284.2 320.95,-54.56 648.3,-85.03 973.07,-49.48 671.13,71.07 1277.52,414.85 1900.45,677.5 622.86,261.34 1337.1,445.28 1963.85,194.08z"/>
       <g>
        <path class="fil5" d="M9860 7075.25c163.1,391.16 387.34,833.67 519.3,1236.43l-519.3 -1236.43zm0 0l0 0 0 0z"/>
        <path id="1" class="fil3 str2" d="M9860 7075.25c163.1,391.16 387.34,833.67 519.3,1236.43m-519.3 -1236.43l0 0 0 0z"/>
       </g>
       <g>
        <path class="fil5" d="M18983.9 6919.15c-53.44,261 -106.92,522 -160.4,782.96 -40.68,198.61 -81.59,398.05 -150.11,588.84l310.51 -1371.79zm0 0l0 0 0 0z"/>
        <path id="1" class="fil3 str2" d="M18983.9 6919.15c-53.44,261 -106.92,522 -160.4,782.96 -40.68,198.61 -81.59,398.05 -150.11,588.84m310.51 -1371.79l0 0 0 0z"/>
       </g>
      </g>
      <g>
       <path class="fil7" d="M16889.7 2452.8c-248.05,266.72 -496.77,534.23 -712.08,827.98 -54.86,74.85 -108.31,152.95 -135.44,241.76 -23.5,76.87 -26.2,158.79 -20.02,238.92 40.16,522.11 494.98,980.97 1016.71,1025.77 -185.48,539.02 83.49,1143.58 465.34,1566.78 381.84,423.2 908.7,818.81 1431.82,1045.27 342.73,-835.65 258.53,-1941.62 62.01,-2823.15 -105.24,-472.03 -231.69,-947.55 -481.39,-1361.69 -249.7,-414.18 -640.18,-764.99 -1112.97,-866.71 -206.96,-44.54 -369.87,-49.89 -513.99,105.09z"/>
       <path class="fil7" d="M16072.39 3465.28c-65.49,153.52 -227.54,240.64 -383.9,298.91 -622.78,231.99 -1345.04,180.87 -1928.93,-136.56 -167.06,449.24 -429.11,772.85 -842.57,1015.29 -413.47,242.44 -911.51,337.31 -1385.12,263.73 -19.2,1030.3 -739.1,1964.07 -1708.39,2313.81 -36.64,-49.18 -84.24,-102.17 -120.84,-151.34 -102.02,-136.94 -204.94,-275.44 -272.49,-432.22 -152.62,-354.11 -100.11,-788.35 132.37,-1095.9 -448.42,-670.5 -498.23,-1580.47 -97.34,-2280.39 400.89,-699.91 1215.66,-1140.62 2020.85,-1093.09 23.2,-576.19 446.62,-1061.81 952.34,-1338.82 505.75,-276.98 1128.54,-305.91 1678,-130.95 549.5,174.92 1026.82,541.57 1386.5,992.35 304.64,-278.89 765.52,-330.91 1149.27,-178.33 383.79,152.62 664.85,536.03 694.79,947.92 26.01,357.07 -357.07,604.63 -650.36,809.94 -166.84,116.95 -420.88,209.8 -624.17,195.66z"/>
       <path class="fil7" d="M17267.5 2342.44c470.05,-40.53 954.51,155.8 1263.82,512.04 309.28,356.24 435.62,863.53 329.49,1323.22 364.1,140.27 617.2,532.59 685.39,916.79 68.22,384.16 -16.95,781.16 -156.85,1145.38 -139.89,364.25 -292.7,787.67 -453.36,1143.24 -366.42,-1734.1 -931.46,-3428.79 -1668.5,-5040.67z"/>
      </g>
     </g>
     <g>
      <path class="fil7" d="M13472.7 12706.06l-43.19 299.62c-983.22,475.74 -1961.04,1426.81 -2384.76,2389.7 -489.74,1113.86 -636.89,2338.13 -721.84,3493.87 -58.38,790.37 -100.26,1696.19 -6.36,2605.83 17.78,175.07 41.88,350.14 71.07,525.22 1.27,11.41 2.54,22.83 5.09,34.24 12.69,69.8 -34.24,134.47 -102.73,147.15 -7.6,1.27 -15.23,1.27 -21.56,1.27 -60.93,0 -115.42,-43.15 -125.63,-105.28 -2.54,-16.5 -5.09,-33.01 -7.6,-49.48 -29.19,-173.8 -51.98,-348.87 -69.76,-522.67 -97.68,-931.2 -54.56,-1852.21 3.82,-2655.27 87.57,-1178.57 238.51,-2426.9 743.44,-3577.59 466.76,-1061.92 1571.49,-2113.44 2660.02,-2586.63z"/>
      <path class="fil7" d="M19433.07 17788.04c1.27,12.69 1.27,24.1 -1.27,35.52 -6.36,54.56 -49.48,100.22 -106.58,107.82 -6.36,1.27 -12.69,1.27 -17.78,1.27 -38.06,0 -72.34,-16.5 -96.44,-44.42 -1.27,-1.27 0,-1.27 0,-1.27 -15.23,-17.78 -25.37,-38.06 -29.19,-63.43 -281.62,-1939.79 -1442.49,-3714.64 -3106.94,-4749.84 -117.96,-72.34 -343.78,-158.57 -563.28,-220.77l-16.5 -267.66c267.7,69.8 559.46,177.62 713.01,272.79 1727.96,1074.57 2933.18,2916.68 3224.98,4930z"/>
      <path class="fil3 str3" d="M19299.62 17793.02c-697.22,720.68 -1219.74,1609.22 -1510.64,2568.74 -180.91,596.77 -267.7,1263.38 -3.89,1828.41 260.17,557.21 1210.83,1085.98 1825.75,1075.39"/>
      <path class="fil3 str3" d="M19339.02 17780.11c415.97,176.79 746.58,522.6 958.1,921.99 211.56,399.39 311.15,850.25 348.91,1300.61 23.65,282.22 23.76,567.95 -24.4,847.07 -108.42,627.95 -462.45,1200.02 -936.47,1625.94 -474.02,425.89 -1062.48,711.93 -1675.83,884.75"/>
      <g>
       <circle class="fil7" transform="matrix(0.9269 -0.3752 0.3752 0.9269 10344.4 22822.9)" r="1328.01"/>
       <path class="fil3 str4" d="M11151.22 22822.91c0,444.19 -360.1,804.29 -804.29,804.29 -444.19,0 -804.33,-360.1 -804.33,-804.29 0,-444.19 360.1,-804.29 804.33,-804.29 444.19,0 804.29,360.1 804.29,804.29z"/>
      </g>
      <path class="fil7" d="M18353.45 23424.69c0,201.72 -163.66,364.1 -365.38,364.1 -200.45,0 -364.1,-162.38 -364.1,-364.1 0,-11.41 0,-22.83 1.27,-33.01 17.78,-186.49 173.8,-331.09 362.83,-331.09 143.34,0 267.7,82.48 327.31,202.99 16.5,33.01 27.92,67.25 33.01,104.04 3.74,19.05 5.05,38.06 5.05,57.07z"/>
      <path class="fil7" d="M20069.92 23328.29c0,200.45 -163.66,364.1 -364.1,364.1 -201.72,0 -365.38,-163.66 -365.38,-364.1l0 -11.41c1.27,-25.37 5.09,-50.75 11.41,-74.85 38.06,-159.84 182.67,-279.11 353.96,-279.11 177.62,0 326.08,128.1 357.74,298.16 3.85,21.56 6.36,44.39 6.36,67.21z"/>
     </g>
    </g>
    <g id="_2052024511072">
     <path class="fil1" d="M5655.92 9222.33c-71.48,-28.22 -137.39,-63.85 -199.1,-107.67 -532.85,-387.83 -670.31,-1370 -292.29,-2344.68 2.13,-4.08 3.56,-10.18 5.65,-14.3 416.65,-1059.71 1294.06,-1708.5 1979.87,-1474.04 10.18,3.56 21.78,7.78 33.35,12.05 645.27,249.7 880.64,1222.06 567.84,2230.35 -22.75,74.25 -46.86,147.83 -76.46,221.96 -421.06,1084.94 -1325.28,1745.7 -2018.86,1476.32z"/>
     <path class="fil2" d="M5456.86 9114.69c-10.22,-3.52 -21.78,-7.78 -32,-11.34 -693.59,-269.42 -914.43,-1366.7 -491.35,-2452.35 2.13,-7.48 6.36,-15.64 9.84,-22.45 424.32,-1071.2 1319.51,-1721.15 2007.64,-1454.54 71.48,28.22 137.39,63.85 199.06,107.67 510.47,371.18 658.93,1291.93 338.13,2225.56 -14.15,40.87 -28.97,79.64 -44.5,119.8 -415.34,1067.23 -1297.69,1725.53 -1986.83,1487.66z"/>
     <path class="fil9" d="M7488.19 7507.2c-236.97,-27.43 -472.82,-86.94 -702.49,-151.91 -554.11,-152.88 -1107.17,-334.46 -1615.5,-599.61 -77.43,-39.89 -152.21,-81.77 -226.87,-127.13 424.32,-1071.2 1319.51,-1721.15 2007.64,-1454.54 71.48,28.22 137.39,63.85 199.06,107.67 510.54,371.14 658.97,1291.89 338.17,2225.52z"/>
    </g>
    <g id="_2052024507840">
     <path class="fil1" d="M22019.51 14551.2c47.42,-60.44 100.37,-113.47 159.91,-160.14 523.68,-400.11 1504.28,-251.83 2330.68,388.47 3.33,3.18 8.79,6.29 12.13,9.51 896.88,701.52 1268.5,1727.55 848.3,2318 -6.29,8.76 -13.66,18.67 -21.03,28.52 -423.35,547.26 -1422.43,495.57 -2299.66,-91.73 -64.67,-42.96 -128.33,-87.05 -190.94,-136.6 -919.93,-712.94 -1295.41,-1768.04 -839.39,-2356.02z"/>
     <path class="fil2" d="M22179.47 14391.06c6.29,-8.76 13.66,-18.67 19.98,-27.43 455.98,-587.98 1570.78,-486.78 2490.6,228.36 6.59,4.19 13.21,10.52 18.75,15.83 905.78,712.15 1273.44,1755.54 821.69,2339.07 -47.42,60.44 -100.37,113.43 -159.91,160.1 -501.34,383.45 -1426.17,263.17 -2229.56,-310.55 -35.1,-25.22 -68.08,-50.49 -102.13,-76.8 -904.59,-702.42 -1283.96,-1735.82 -859.42,-2328.59z"/>
     <path class="fil9" d="M23140.9 16796.44c93.86,-219.27 218.18,-428.4 345.91,-630 304.56,-487.45 636.29,-965.81 1035.39,-1377.45 60.33,-62.87 121.78,-122.57 186.52,-181.21 905.78,712.15 1273.44,1755.54 821.69,2339.07 -47.42,60.44 -100.37,113.43 -159.91,160.1 -501.3,383.53 -1426.17,263.21 -2229.6,-310.51z"/>
    </g>
    <g id="_2052024508480">
     <circle class="fil2" transform="matrix(0.4762 -0.8794 0.8794 0.4762 9254.36 12926.7)" r="1700.49"/>
     <g>
      <rect class="fil9" transform="matrix(0.9991 -0.0431 0.0431 0.9991 9039.22 11949.4)" width="393.29" height="1947.64"/>
      <rect class="fil9" transform="matrix(0.0431 0.9991 -0.9991 0.0431 10237.7 12677.8)" width="393.29" height="1947.64"/>
     </g>
    </g>
    <g id="_2052024506912">
     <circle class="fil2" transform="matrix(0.1602 -0.9871 0.9871 0.1602 21404.4 4251.39)" r="1727.51"/>
     <g>
      <rect class="fil9" transform="matrix(0.9991 -0.0431 0.0431 0.9991 21218.5 3327.98)" width="399.51" height="1978.52"/>
      <rect class="fil9" transform="matrix(0.0431 0.9991 -0.9991 0.0431 22439.3 4067.49)" width="399.51" height="1978.52"/>
     </g>
    </g>
   </g>
   <g>
    <circle class="fil3 str5" transform="matrix(0.1612 -0.9869 0.9869 0.1612 4961.01 19659.9)" r="839.24"/>
    <g id="_2052024503136">
     <line class="fil3 str6" x1="25385.02" y1="19195.87" x2="23916.37" y2= "18840.04" />
     <line class="fil3 str6" x1="24828.63" y1="18283.62" x2="24472.76" y2= "19752.3" />
    </g>
    <g id="_2052024502240">
     <line class="fil3 str6" x1="6763.65" y1="11502.64" x2="5287.85" y2= "11827.71" />
     <line class="fil3 str6" x1="5863.22" y1="10927.27" x2="6188.29" y2= "12403.03" />
    </g>
   </g>
   <g>
    <path class="fil6" d="M20507 10022.99c0,241.5 -195.77,437.31 -437.31,437.31 -241.5,0 -437.31,-195.77 -437.31,-437.31 0,-241.5 195.77,-437.31 437.31,-437.31 241.5,0 437.31,195.8 437.31,437.31z"/>
    <circle class="fil6" transform="matrix(0.2841 -0.9588 0.9588 0.2841 9865.41 10280.9)" r="437.27"/>
   </g>
  </g>
 </g>
</svg>
